<?xml version="1.0" encoding="UTF-8" standalone="no"?>
<!-- Created with Inkscape (http://www.inkscape.org/) -->

<svg
   xmlns:dc="http://purl.org/dc/elements/1.1/"
   xmlns:cc="http://creativecommons.org/ns#"
   xmlns:rdf="http://www.w3.org/1999/02/22-rdf-syntax-ns#"
   xmlns:svg="http://www.w3.org/2000/svg"
   xmlns="http://www.w3.org/2000/svg"
   xmlns:sodipodi="http://sodipodi.sourceforge.net/DTD/sodipodi-0.dtd"
   xmlns:inkscape="http://www.inkscape.org/namespaces/inkscape"
   width="92"
   height="61"
   id="svg3640"
   version="1.1"
   inkscape:version="0.48.1 r9760"
   sodipodi:docname="Swiss_National_Supercomputing_Centre_logo.svg">
  <defs
     id="defs3642" />
  <sodipodi:namedview
     id="base"
     pagecolor="#ffffff"
     bordercolor="#666666"
     borderopacity="1.0"
     inkscape:pageopacity="0.0"
     inkscape:pageshadow="2"
     inkscape:zoom="5.6"
     inkscape:cx="54.726061"
     inkscape:cy="29.976434"
     inkscape:document-units="px"
     inkscape:current-layer="layer1"
     showgrid="false"
     inkscape:window-width="1440"
     inkscape:window-height="843"
     inkscape:window-x="0"
     inkscape:window-y="26"
     inkscape:window-maximized="1"
     fit-margin-top="0"
     fit-margin-left="0"
     fit-margin-right="0"
     fit-margin-bottom="0" />
  <metadata
     id="metadata3645">
    <rdf:RDF>
      <cc:Work
         rdf:about="">
        <dc:format>image/svg+xml</dc:format>
        <dc:type
           rdf:resource="http://purl.org/dc/dcmitype/StillImage" />
        <dc:title />
      </cc:Work>
    </rdf:RDF>
  </metadata>
  <g
     inkscape:label="Layer 1"
     inkscape:groupmode="layer"
     id="layer1"
     transform="translate(-317.14939,-318.97916)">
    <g
       id="g98"
       transform="matrix(1.25,0,0,-1.25,357.68051,343.65104)">
      <path
         inkscape:connector-curvature="0"
         d="m 0,0 -8.041,0 -9.793,9.753 8.041,0 L 0,0 z"
         style="fill:#7e8285;fill-opacity:1;fill-rule:nonzero;stroke:none"
         id="path100" />
    </g>
    <g
       id="g102"
       transform="matrix(1.25,0,0,-1.25,353.38726,349.28992)">
      <path
         inkscape:connector-curvature="0"
         d="m 0,0 8.143,0 9.916,9.891 -8.142,0 L 0,0 z"
         style="fill:#dadada;fill-opacity:1;fill-rule:nonzero;stroke:none"
         id="path104" />
    </g>
    <g
       id="g106"
       transform="matrix(1.25,0,0,-1.25,335.23777,367.69854)">
      <path
         inkscape:connector-curvature="0"
         d="m 0,0 8.143,0 9.917,9.891 -8.143,0 L 0,0 z"
         style="fill:#dadada;fill-opacity:1;fill-rule:nonzero;stroke:none"
         id="path108" />
    </g>
    <g
       id="g110"
       transform="matrix(1.25,0,0,-1.25,375.95402,361.61529)">
      <path
         inkscape:connector-curvature="0"
         d="m 0,0 -8.143,0 -9.916,9.892 8.142,0 L 0,0 z"
         style="fill:#7e8285;fill-opacity:1;fill-rule:nonzero;stroke:none"
         id="path112" />
    </g>
    <g
       id="g114"
       transform="matrix(1.25,0,0,-1.25,357.74164,379.89154)">
      <path
         inkscape:connector-curvature="0"
         d="m 0,0 -8.096,0 -9.86,9.753 8.096,0 L 0,0 z"
         style="fill:#7e8285;fill-opacity:1;fill-rule:nonzero;stroke:none"
         id="path116" />
    </g>
    <g
       id="g118"
       transform="matrix(1.25,0,0,-1.25,357.73651,379.89066)">
      <path
         inkscape:connector-curvature="0"
         d="M 0,0 -9.852,9.746 -0.106,19.598 9.747,9.852 0,0 z"
         style="fill:#aaaeb5;fill-opacity:1;fill-rule:nonzero;stroke:none"
         id="path120" />
    </g>
    <g
       id="g122"
       transform="matrix(1.25,0,0,-1.25,339.46651,361.78241)">
      <path
         inkscape:connector-curvature="0"
         d="M 0,0 -9.853,9.746 -0.106,19.598 9.745,9.852 0,0 z"
         style="fill:#aaaeb5;fill-opacity:1;fill-rule:nonzero;stroke:none"
         id="path124" />
    </g>
    <g
       id="g126"
       transform="matrix(1.25,0,0,-1.25,357.60552,343.52842)">
      <path
         inkscape:connector-curvature="0"
         d="M 0,0 -9.852,9.746 -0.106,19.598 9.745,9.852 0,0 z"
         style="fill:#aaaeb5;fill-opacity:1;fill-rule:nonzero;stroke:none"
         id="path128" />
    </g>
    <g
       id="g130"
       transform="matrix(1.25,0,0,-1.25,375.85802,361.64204)">
      <path
         inkscape:connector-curvature="0"
         d="M 0,0 -9.852,9.746 -0.106,19.598 9.747,9.852 0,0 z"
         style="fill:#aaaeb5;fill-opacity:1;fill-rule:nonzero;stroke:none"
         id="path132" />
    </g>
    <g
       id="g134"
       transform="matrix(1.25,0,0,-1.25,339.45951,361.74454)">
      <path
         inkscape:connector-curvature="0"
         d="m 0,0 -8.041,0 -9.793,9.753 8.041,0 L 0,0 z"
         style="fill:#7e8285;fill-opacity:1;fill-rule:nonzero;stroke:none"
         id="path136" />
    </g>
    <g
       id="g138"
       transform="matrix(1.25,0,0,-1.25,317.14939,349.55729)">
      <path
         inkscape:connector-curvature="0"
         d="m 0,0 8.002,0 9.746,9.805 -8.004,0 L 0,0 z"
         style="fill:#dadada;fill-opacity:1;fill-rule:nonzero;stroke:none"
         id="path140" />
    </g>
    <g
       id="g142"
       transform="matrix(1.25,0,0,-1.25,335.26226,331.39904)">
      <path
         inkscape:connector-curvature="0"
         d="m 0,0 8.002,0 9.746,9.805 -8.004,0 L 0,0 z"
         style="fill:#dadada;fill-opacity:1;fill-rule:nonzero;stroke:none"
         id="path144" />
    </g>
    <g
       id="g146"
       transform="matrix(1.25,0,0,-1.25,378.26214,379.97916)">
      <path
         inkscape:connector-curvature="0"
         d="M 0,0 -9.852,9.746 -0.106,19.598 9.745,9.852 0,0 z"
         style="fill:#e32021;fill-opacity:1;fill-rule:nonzero;stroke:none"
         id="path148" />
    </g>
    <g
       id="g150"
       transform="matrix(1.25,0,0,-1.25,359.99051,361.87079)">
      <path
         inkscape:connector-curvature="0"
         d="M 0,0 -9.852,9.746 -0.106,19.598 9.747,9.852 0,0 z"
         style="fill:#e32021;fill-opacity:1;fill-rule:nonzero;stroke:none"
         id="path152" />
    </g>
    <g
       id="g154"
       transform="matrix(1.25,0,0,-1.25,378.13126,343.61667)">
      <path
         inkscape:connector-curvature="0"
         d="M 0,0 -9.853,9.746 -0.106,19.598 9.745,9.852 0,0 z"
         style="fill:#e32021;fill-opacity:1;fill-rule:nonzero;stroke:none"
         id="path156" />
    </g>
    <g
       id="g158"
       transform="matrix(1.25,0,0,-1.25,396.38364,361.73042)">
      <path
         inkscape:connector-curvature="0"
         d="M 0,0 -9.852,9.746 -0.106,19.598 9.745,9.852 0,0 z"
         style="fill:#e32021;fill-opacity:1;fill-rule:nonzero;stroke:none"
         id="path160" />
    </g>
    <g
       id="g162"
       transform="matrix(1.25,0,0,-1.25,359.91364,361.86516)">
      <path
         inkscape:connector-curvature="0"
         d="m 0,0 -8.041,0 -9.793,9.753 8.041,0 L 0,0 z"
         style="fill:#a82b20;fill-opacity:1;fill-rule:nonzero;stroke:none"
         id="path164" />
    </g>
    <g
       id="g166"
       transform="matrix(1.25,0,0,-1.25,378.33726,379.90117)">
      <path
         inkscape:connector-curvature="0"
         d="m 0,0 -8.041,0 -9.793,9.753 8.041,0 L 0,0 z"
         style="fill:#a82b20;fill-opacity:1;fill-rule:nonzero;stroke:none"
         id="path168" />
    </g>
    <g
       id="g170"
       transform="matrix(1.25,0,0,-1.25,396.36976,361.70329)">
      <path
         inkscape:connector-curvature="0"
         d="m 0,0 -8.041,0 -9.793,9.753 8.041,0 L 0,0 z"
         style="fill:#a82b20;fill-opacity:1;fill-rule:nonzero;stroke:none"
         id="path172" />
    </g>
    <g
       id="g174"
       transform="matrix(1.25,0,0,-1.25,378.15564,343.59717)">
      <path
         inkscape:connector-curvature="0"
         d="m 0,0 -8.041,0 -9.793,9.753 8.041,0 L 0,0 z"
         style="fill:#a82b20;fill-opacity:1;fill-rule:nonzero;stroke:none"
         id="path176" />
    </g>
    <g
       id="g178"
       transform="matrix(1.25,0,0,-1.25,337.70664,349.67404)">
      <path
         inkscape:connector-curvature="0"
         d="m 0,0 8.002,0 9.746,9.805 -8.004,0 L 0,0 z"
         style="fill:#f08466;fill-opacity:1;fill-rule:nonzero;stroke:none"
         id="path180" />
    </g>
    <g
       id="g182"
       transform="matrix(1.25,0,0,-1.25,355.84726,331.38817)">
      <path
         inkscape:connector-curvature="0"
         d="m 0,0 8.002,0 9.746,9.805 -8.003,0 L 0,0 z"
         style="fill:#f08466;fill-opacity:1;fill-rule:nonzero;stroke:none"
         id="path184" />
    </g>
    <g
       id="g186"
       transform="matrix(1.25,0,0,-1.25,374.06139,349.49467)">
      <path
         inkscape:connector-curvature="0"
         d="m 0,0 8.002,0 9.745,9.805 -8.002,0 L 0,0 z"
         style="fill:#f08466;fill-opacity:1;fill-rule:nonzero;stroke:none"
         id="path188" />
    </g>
    <g
       id="g190"
       transform="matrix(1.25,0,0,-1.25,356.01139,367.71841)">
      <path
         inkscape:connector-curvature="0"
         d="m 0,0 8.004,0 9.745,9.805 -8.004,0 L 0,0 z"
         style="fill:#f08466;fill-opacity:1;fill-rule:nonzero;stroke:none"
         id="path192" />
    </g>
  </g>
</svg>
